<?xml version="1.0" encoding="UTF-8" standalone="no"?>
<!-- Created with Inkscape (http://www.inkscape.org/) -->

<svg
   width="100"
   height="109"
   viewBox="0 0 100 109"
   version="1.1"
   id="svg1"
   xmlns="http://www.w3.org/2000/svg"
   xmlns:svg="http://www.w3.org/2000/svg">
  <defs
     id="defs1" />
  <g
     id="layer1"
     transform="translate(-59.963263,-43.255434)">
    <g
       id="g45"
       clip-path="none">
      <path
         d="m 159.96336,88.42561 -46.08297,63.41783 a 20.01827,20.01827 0 0 0 6.09213,-2.16627 l 29.73307,-17.16588 a 20.51602,20.51602 0 0 0 10.25777,-17.76739 z"
         style="fill:#366735"
         id="path42" />
      <path
         d="M 72.312382,133.71794 113.66335,43.646431 A 20.199115,20.199115 0 0 0 99.863672,45.816842 L 70.040169,63.035429 A 20.153764,20.153764 0 0 0 59.963265,80.489144 v 34.727076 a 19.697706,19.697706 0 0 0 9.849011,17.05839 z"
         style="fill:#193119;stroke-width:0.342"
         id="path39" />
      <path
         id="path41"
         style="fill:#224222;stroke-width:0.27531"
         d="m 113.66335,43.646431 -41.350968,90.071509 4.62039,2.66753 23.021334,13.2917 a 20.01827,20.01827 0 0 0 13.926284,2.16627 L 159.96336,88.42561 V 79.844222 A 19.036497,19.036497 0 0 0 150.44508,63.358407 L 120.06296,45.816842 a 20.199115,20.199115 0 0 0 -4.05299,-1.678968 20.199115,20.199115 0 0 0 -2.34662,-0.491443 z" />
    </g>
    <g
       id="g89"
       transform="matrix(1.1295363,0,0,1.1295363,-71.729721,-53.387693)">
      <path
         d="m 205.57091,121.06703 -30.92317,42.55554 5.96242,10.01851 14.70298,-8.48837 a 20.51602,20.51602 0 0 0 10.25777,-17.76739 z"
         style="fill:#ffffff;fill-opacity:0.0539773;stroke-width:0.355658"
         id="path88" />
      <path
         d="m 205.57091,120.13892 -58.71476,-8.51318 -1.31155,3.09594 29.10314,48.90089 30.92317,-42.55554 z"
         style="fill:#ffffff;fill-opacity:0.0539773;stroke-width:0.355658"
         id="path87" />
      <path
         d="m 145.5446,114.72168 1.31155,-3.09594 -3.45199,-0.50074 z"
         style="fill:#ffffff;fill-opacity:0.0539773;stroke-width:0.355658"
         id="path86" />
    </g>
  </g>
</svg>
